<svg xmlns="http://www.w3.org/2000/svg" aria-hidden="true" style="position:absolute;width:0;height:0;overflow:hidden">
  <defs>
    <symbol id="icon-cancel" viewBox="0 0 32 32">
      <path stroke-linecap="round" stroke-linejoin="round" stroke-miterlimit="10" stroke-width="4" d="m4 4 24 24M4 28 28 4"/>
    </symbol>
    <symbol id="icon-subtract" viewBox="0 0 31 32">
      <path d="M14.089 31.355c.031.012.061.024.092.039.777.355 1.958.276 2.673-.19.255-.155 1.736-1.467 3.286-2.917l2.843-2.641 2.247 2.123 3.576 3.281c.379.348.93.562 1.444.562a.717.717 0 0 0 .717-.717V15.354c0-.774-.099-1.41-.374-1.912-.309-.564-2.281-2.469-5.822-5.766l-.721-.669c-2.719-2.522-5.16-4.787-5.629-5.183C17.025.616 15.714.339 14.335.978c-.698.311-3.269 2.572-5.959 5.248L7.15 7.434l-.392-.345c-.155-.133-.822-.759-1.67-1.556L3.932 4.448C1.753 2.394 1.547 2.221.953 2.221c-.467 0-.954.425-.954 1.52 0 .817.003 1.706.006 2.897l.011 4.094c-.017 3.074-.017 5.397-.017 6.171.048 1.282.229 1.752.392 2.063.204.432 2.247 2.417 6.112 5.956 6.609 6.047 7.205 6.284 7.586 6.435zm3.459-23.486 7.226 6.71c.652.587 1.032 1.018 1.032 1.895v3.266a1.548 1.548 0 1 1-3.096 0v-2.713c0-.493-.452-.896-.846-1.248a11.183 11.183 0 0 1-.186-.169l-5.161-4.645c-.595-.553-1.487-1.229-2.345-.371-.666.666-.559 1.454 0 2.048l5.958 5.548c1.147 1.219.607 3.005-.576 4.189l-1.992 1.992a3.096 3.096 0 0 1-4.261.112l-7.455-6.71a2.065 2.065 0 0 1-.683-1.535v-2.693a1.548 1.548 0 1 1 3.096 0v2.131c0 .287.12.561.33.756l5.584 5.185c.732.68 1.872.659 2.579-.048.726-.726.798-1.83 0-2.628l-5.396-4.879c-1.247-1.247-.98-3.575.32-4.766l1.736-1.591c1.176-1.078 2.952-.903 4.138.164z"/>
    </symbol>
  </defs>
</svg>
